<svg width="53" height="45" viewBox="0 0 53 45" fill="none" xmlns="http://www.w3.org/2000/svg">
<path d="M1.59142 12C0.700118 12 0 12.6601 0 13.5005V43.5108C0 45.4975 3.18284 45.4954 3.18284 43.5108V15.001H6.57787V34.5454C6.57861 34.5449 6.57935 34.5444 6.57999 34.5439C6.60078 37.0096 8.7335 39.0092 11.3533 39.0092C13.9859 39.0092 16.1275 36.9899 16.1275 34.5077C16.1275 34.4929 16.1265 34.4782 16.1264 34.4634V15.001H19.3092V13.5005C19.3092 12.7938 19.7644 12.3465 20 12H1.59142ZM12.9435 15.001V30.2638C12.4457 30.0975 11.9108 30.0062 11.3533 30.0062C10.7949 30.0062 10.2591 30.0978 9.7607 30.2646V15.001H12.9435ZM11.3533 36.0082C10.4758 36.0082 9.76187 35.3351 9.76187 34.5077C9.76187 33.6803 10.4758 33.0072 11.3533 33.0072C12.2308 33.0072 12.9447 33.6803 12.9447 34.5077C12.9447 35.3351 12.2308 36.0082 11.3533 36.0082Z" fill="#F2F2F2"/>
<path d="M51.4657 42.0001H49.2489L40.6438 28.0845V15H19V43.5001C19 45.4861 22.092 45.484 22.092 43.5001V30H25.1839V22.5C25.1839 20.0186 27.2644 18 29.8219 18C32.3794 18 34.4598 20.0186 34.4598 22.5V30H37.5518V43.5001C37.5518 45.4861 40.6438 45.484 40.6438 43.5001V33.9156L47.0482 44.272C47.255 44.6065 47.8286 45 48.3737 45H51.4657C53.5125 45.0001 53.5104 42.0001 51.4657 42.0001Z" fill="#F2F2F2"/>
<path d="M31 33.0016H28V30H25V43.5073C25 45.496 28 45.4991 28 43.5073V42.0065H31V43.5073C31 45.496 34 45.4991 34 43.5073V30H31V33.0016ZM28 39.0048V36.0032H31V39.0048H28Z" fill="#F2F2F2"/>
<path d="M31.2308 0.564263C30.6462 -0.188088 29.3537 -0.188088 28.7691 0.564263L20 12H40L31.2308 0.564263Z" fill="#F2F2F2"/>
<path d="M31 22.5C31 21.6724 30.3262 21 29.5 21C28.6738 21 28 21.6724 28 22.5V30H31V22.5Z" fill="#F2F2F2"/>
</svg>
